<?xml version="1.0" standalone="no"?>
<!DOCTYPE svg PUBLIC "-//W3C//DTD SVG 20010904//EN"
 "http://www.w3.org/TR/2001/REC-SVG-20010904/DTD/svg10.dtd">
<svg version="1.0" xmlns="http://www.w3.org/2000/svg"
 width="1039.000000pt" height="1039.000000pt" viewBox="0 0 1039.000000 1039.000000"
 preserveAspectRatio="xMidYMid meet">
<metadata>
Created by potrace 1.14, written by Peter Selinger 2001-2017
</metadata>
<g transform="translate(0.000000,1039.000000) scale(0.100000,-0.100000)"
fill="#000000" stroke="none">
<path d="M5150 10013 c-57 -3 -340 -28 -425 -37 -16 -1 -64 -6 -105 -10 -71
-7 -122 -13 -400 -51 -139 -19 -363 -60 -445 -82 -33 -8 -76 -17 -95 -20 -34
-5 -157 -34 -230 -54 -19 -6 -53 -15 -75 -20 -48 -12 -183 -57 -207 -70 -10
-5 -23 -9 -29 -9 -15 0 -235 -77 -275 -96 -17 -9 -37 -17 -45 -18 -8 -2 -25
-8 -39 -13 -14 -6 -28 -9 -32 -6 -5 2 -8 -1 -8 -8 0 -7 -10 -9 -25 -6 -14 2
-23 2 -21 -1 3 -2 -34 -18 -82 -34 -134 -44 -402 -180 -525 -266 -143 -100
-207 -145 -226 -157 -161 -101 -373 -253 -411 -295 -19 -20 -174 -145 -180
-145 -5 0 -12 -4 -17 -9 -5 -5 -3 -6 5 -2 24 14 11 -6 -30 -47 -60 -59 -138
-159 -138 -176 0 -6 -4 -11 -9 -11 -5 0 -26 -26 -46 -57 -21 -32 -45 -69 -54
-83 -10 -14 -28 -45 -42 -70 -13 -25 -29 -49 -35 -55 -7 -5 -24 -28 -38 -50
-15 -22 -47 -69 -72 -105 -24 -36 -47 -75 -50 -87 -4 -13 -9 -23 -13 -23 -9 0
-37 -57 -56 -113 -8 -27 -23 -63 -32 -80 -9 -18 -18 -41 -20 -51 -2 -11 -7
-24 -11 -30 -16 -21 -43 -106 -38 -115 4 -5 2 -12 -4 -16 -10 -6 -25 -57 -34
-115 -7 -47 -18 -75 -114 -280 -22 -47 -50 -116 -63 -155 -12 -38 -26 -79 -30
-90 -16 -38 -67 -250 -74 -305 -4 -30 -10 -59 -14 -65 -3 -5 -6 -19 -7 -30 -1
-11 -12 -60 -24 -110 -12 -49 -26 -106 -31 -125 -4 -19 -14 -62 -23 -95 -8
-33 -15 -78 -15 -101 0 -22 -8 -78 -17 -125 -29 -136 -24 -692 7 -949 6 -47
12 -101 14 -120 12 -115 18 -154 36 -240 11 -52 25 -103 30 -112 5 -10 9 -27
9 -38 0 -34 61 -215 76 -223 7 -4 11 -13 9 -20 -8 -20 94 -284 169 -441 20
-41 36 -81 36 -88 0 -8 4 -18 8 -23 5 -6 15 -26 22 -45 7 -19 31 -73 52 -120
22 -47 46 -101 55 -120 8 -19 21 -48 28 -65 7 -16 27 -64 43 -105 38 -92 60
-138 73 -145 5 -4 9 -15 9 -26 0 -10 4 -27 9 -37 18 -36 71 -152 71 -157 0 -2
17 -33 38 -67 21 -35 47 -84 58 -110 10 -27 22 -48 27 -48 4 0 7 -6 7 -13 0
-8 14 -33 30 -55 17 -23 30 -45 30 -48 0 -11 111 -174 132 -193 10 -10 27 -32
36 -49 22 -39 175 -201 256 -272 35 -30 111 -96 167 -145 151 -131 267 -225
279 -225 5 0 10 -4 10 -9 0 -4 19 -21 42 -37 24 -16 68 -49 98 -74 61 -51 121
-97 154 -120 12 -8 47 -32 77 -52 96 -67 159 -108 165 -108 3 0 24 -13 47 -28
23 -16 49 -32 57 -35 8 -4 29 -16 45 -27 17 -11 38 -23 48 -26 9 -4 17 -10 17
-15 0 -5 3 -8 8 -7 11 4 72 -26 72 -35 0 -5 4 -6 9 -2 6 3 14 -2 19 -11 5 -9
11 -15 13 -13 9 5 49 -13 49 -22 0 -6 4 -7 10 -4 5 3 10 1 10 -5 0 -6 4 -8 10
-5 5 3 10 2 10 -3 0 -6 11 -13 25 -16 13 -3 51 -22 84 -41 33 -19 66 -35 74
-35 8 0 20 -7 27 -15 7 -8 17 -15 22 -15 5 0 24 -11 42 -25 18 -14 36 -25 39
-25 7 0 273 -125 330 -155 16 -8 34 -15 42 -15 7 0 55 -18 107 -39 191 -80
341 -119 618 -161 162 -25 295 -38 410 -39 69 -1 168 -7 220 -12 136 -15 143
-15 147 -2 2 6 -6 13 -19 16 -21 4 -3 6 97 12 48 3 598 65 635 71 14 3 50 7
80 10 70 6 210 31 275 49 56 15 155 38 170 40 6 0 21 6 35 12 14 6 61 18 105
28 88 18 103 23 220 60 44 15 123 37 175 51 52 14 136 38 185 54 50 16 131 41
180 55 272 79 452 145 580 212 133 70 465 280 465 294 0 5 6 9 14 9 14 0 146
85 156 101 3 4 30 24 60 45 30 20 57 40 60 44 3 3 30 25 61 47 31 23 62 47 70
55 8 7 26 22 40 33 47 37 162 140 188 169 14 17 53 58 86 91 153 157 222 235
309 348 90 118 226 326 226 347 0 6 12 29 26 52 14 22 27 51 29 64 1 13 10 35
19 49 9 14 14 30 11 36 -4 5 1 27 11 47 10 20 19 39 19 42 1 3 5 14 9 25 25
67 46 84 28 23 -6 -18 -20 -73 -32 -123 -23 -98 -56 -194 -102 -295 -52 -114
-136 -314 -143 -340 l-6 -25 23 26 c43 49 58 69 58 79 0 16 19 21 39 10 16 -8
24 -6 41 12 11 13 23 32 26 43 3 12 21 34 40 50 19 16 34 34 34 40 0 7 8 23
18 36 31 41 126 275 138 339 3 14 11 45 19 70 8 25 22 72 31 105 9 33 19 67
22 75 3 8 4 19 3 24 -4 16 28 74 44 80 8 3 15 14 15 24 0 11 7 25 15 32 8 7
15 23 15 36 0 12 7 29 15 38 9 8 25 50 36 93 21 82 23 89 31 113 25 72 91 324
102 385 2 17 10 57 16 90 33 178 57 423 53 560 0 26 -2 334 -1 360 0 11 -3
102 -6 202 -4 112 -3 184 3 187 5 3 12 25 16 49 4 23 14 53 22 66 12 18 14 42
9 110 -11 153 -61 425 -111 606 -34 122 -114 424 -114 430 0 18 -69 334 -86
395 -8 30 -20 73 -26 95 -7 22 -17 58 -24 80 -7 22 -20 65 -29 95 -32 110 -68
213 -90 263 -77 173 -97 212 -111 215 -8 2 -15 8 -15 13 0 5 -4 9 -10 9 -5 0
-7 -8 -3 -17 14 -40 -9 -1 -73 122 -37 72 -75 145 -85 164 -10 18 -15 39 -12
46 2 8 -4 26 -15 42 -36 53 -102 169 -102 181 0 19 -43 96 -61 110 -10 7 -30
51 -44 98 -14 47 -35 94 -45 104 -11 11 -18 20 -15 20 3 0 -1 13 -10 30 -8 16
-15 33 -15 36 1 4 -12 13 -28 21 -16 8 -34 24 -40 36 -23 50 -113 159 -173
209 -82 70 -253 173 -300 182 -21 4 -42 13 -49 21 -7 8 -21 15 -31 15 -10 0
-21 5 -24 10 -6 10 -92 54 -110 56 -5 0 -23 6 -38 12 -16 7 -33 12 -38 12 -5
0 -27 9 -49 20 -22 11 -48 20 -58 20 -11 0 -25 7 -32 16 -16 18 -87 54 -108
54 -9 0 -35 12 -59 26 -25 14 -50 23 -57 21 -8 -3 -71 23 -142 59 -71 35 -139
64 -151 64 -12 0 -39 11 -59 25 -20 14 -43 25 -52 25 -28 0 -198 73 -383 165
-318 157 -557 241 -779 274 -36 5 -83 14 -105 19 -22 6 -76 13 -120 16 -198
14 -244 19 -241 25 3 4 -10 5 -29 3 -18 -2 -80 1 -137 8 -104 12 -538 21 -658
13z m4571 -7050 c-12 -20 -14 -14 -5 12 4 9 9 14 11 11 3 -2 0 -13 -6 -23z
m-2291 -1934 c0 -5 -4 -7 -10 -4 -5 3 -10 1 -10 -4 0 -6 -13 -11 -30 -11 -16
0 -30 -5 -30 -11 0 -6 -9 -9 -20 -6 -11 3 -20 1 -20 -5 0 -6 -7 -8 -15 -4 -8
3 -15 2 -15 -2 0 -4 -13 -13 -30 -19 -23 -8 -30 -8 -30 0 0 7 -5 4 -11 -5 -13
-22 -25 -23 -33 -2 -4 12 -2 15 9 10 9 -3 20 2 27 14 11 17 13 17 25 2 11 -14
13 -14 11 -2 -2 9 4 14 15 14 9 -1 17 2 17 8 0 5 5 6 10 3 6 -4 16 -3 23 2 7
5 28 10 47 12 19 1 39 7 45 12 12 12 25 11 25 -2z m-262 -87 c2 -7 -5 -12 -15
-12 -11 0 -20 6 -20 14 0 16 29 14 35 -2z m-54 -17 c-4 -8 -13 -15 -22 -15
-13 0 -12 3 4 15 24 18 25 18 18 0z"/>
<path d="M9660 7685 c0 -8 4 -15 10 -15 5 0 7 7 4 15 -4 8 -8 15 -10 15 -2 0
-4 -7 -4 -15z"/>
<path d="M8500 1279 c-19 -17 -73 -53 -120 -81 -47 -28 -98 -63 -114 -79 -17
-16 -37 -29 -45 -29 -8 0 -24 -9 -35 -19 -25 -23 -72 -51 -151 -92 -33 -17
-78 -41 -100 -54 -44 -27 -225 -117 -295 -147 -182 -80 -475 -190 -535 -201
-11 -2 -33 -9 -50 -16 -16 -7 -55 -17 -85 -23 -30 -5 -70 -16 -89 -24 -19 -8
-57 -18 -85 -23 -56 -10 -163 -36 -212 -51 -17 -6 -39 -10 -50 -10 -22 0 -90
-23 -100 -33 -4 -4 -17 -7 -28 -7 -12 0 -39 -9 -61 -19 -22 -11 -48 -22 -57
-25 -25 -7 -22 -26 3 -26 22 0 241 42 349 66 36 8 88 19 115 24 86 16 171 37
184 45 7 4 38 13 69 20 111 25 404 114 444 136 10 5 30 9 45 9 16 0 50 11 77
25 27 14 55 25 61 25 34 0 399 176 534 257 90 54 171 114 171 125 0 15 43 54
88 82 23 14 42 30 42 34 0 4 14 16 31 27 30 20 57 60 64 96 6 29 -24 23 -65
-12z"/>
</g>
</svg>
